<svg xmlns="http://www.w3.org/2000/svg" xmlns:xlink="http://www.w3.org/1999/xlink" width="500" zoomAndPan="magnify"
    viewBox="0 0 375 374.999991" height="500" preserveAspectRatio="xMidYMid meet" version="1.0">
    <defs>
        <clipPath id="a031ef47c6">
            <path d="M 13.5625 61 L 241 61 L 241 300 L 13.5625 300 Z M 13.5625 61 " clip-rule="nonzero" />
        </clipPath>
    </defs>
    <g clip-path="url(#a031ef47c6)">
        <path fill="#ffffff"
            d="M 84.375 69.207031 C 40.253906 88.292969 13.5625 129.734375 13.5625 178.808594 C 14.109375 236.0625 46.246094 280.226562 98.539062 294.949219 C 140.480469 306.945312 179.703125 293.859375 211.292969 256.238281 C 233.628906 230.609375 247.246094 184.261719 236.351562 171.71875 C 227.089844 160.269531 120.871094 160.8125 111.613281 172.265625 C 106.164062 178.808594 106.164062 182.078125 111.613281 188.621094 C 116.515625 194.621094 129.589844 196.800781 161.179688 196.800781 C 185.148438 196.800781 204.214844 197.890625 204.214844 199.527344 C 204.214844 207.707031 187.328125 233.335938 175.34375 245.332031 C 158.457031 260.597656 118.695312 266.597656 95.269531 256.78125 C 59.863281 242.058594 40.800781 202.253906 48.96875 160.269531 C 53.871094 131.914062 86.011719 101.378906 115.425781 96.472656 C 139.394531 92.109375 148.652344 80.65625 138.304688 68.117188 C 130.132812 58.300781 108.34375 58.847656 84.375 69.207031 Z M 84.375 69.207031 "
            fill-opacity="1" fill-rule="nonzero" />
    </g>
    <path fill="#ffffff"
        d="M 289.734375 63.753906 C 287.554688 65.9375 285.921875 75.75 285.921875 86.109375 C 285.921875 102.46875 284.285156 104.105469 270.125 104.105469 C 252.691406 104.105469 239.621094 116.101562 244.523438 128.640625 C 246.15625 133.550781 254.328125 136.820312 266.3125 136.820312 C 284.285156 136.820312 285.375 137.910156 287.011719 156.996094 C 288.644531 174.992188 290.277344 177.71875 302.261719 177.71875 C 314.246094 177.71875 315.878906 174.992188 317.515625 156.996094 C 319.148438 137.910156 320.238281 136.820312 337.667969 136.820312 C 349.105469 136.820312 356.734375 133.550781 358.910156 128.097656 C 363.8125 115.011719 352.375 104.105469 334.398438 104.105469 C 320.78125 104.105469 319.148438 101.921875 317.515625 83.382812 C 316.425781 68.117188 313.15625 62.664062 304.984375 61.574219 C 298.449219 60.484375 291.914062 61.574219 289.734375 63.753906 Z M 289.734375 63.753906 "
        fill-opacity="1" fill-rule="nonzero" />
</svg>